<svg xmlns="http://www.w3.org/2000/svg" width="1000" height="1000">
  <ellipse cx="100" cy="100" rx="50" ry="50" fill="rgba(255, 230, 0, 1)" stroke="rgba(0, 0, 0, 1)" stroke-width="1" />
  <ellipse cx="100" cy="100" rx="50" ry="50" fill="none" stroke="rgba(255, 200, 0, 1)" stroke-width="1" />
  <polygon points="200,300 200,600 600,600 600,300" fill="rgba(240, 200, 160, 1)" stroke="rgba(255, 200, 0, 1)" stroke-width="1" />
  <line x1="200" y1="300" x2="200" y2="600" stroke="rgba(0, 0, 0, 1)" stroke-width="0" />
  <line x1="200" y1="600" x2="600" y2="600" stroke="rgba(0, 0, 0, 1)" stroke-width="0" />
  <line x1="600" y1="600" x2="600" y2="300" stroke="rgba(0, 0, 0, 1)" stroke-width="0" />
  <line x1="600" y1="300" x2="200" y2="300" stroke="rgba(0, 0, 0, 1)" stroke-width="0" />
  <polygon points="200,300 400,150 600,300" fill="rgba(180, 50, 50, 1)" stroke="rgba(0, 0, 0, 1)" stroke-width="0" />
  <line x1="200" y1="300" x2="400" y2="150" stroke="rgba(0, 0, 0, 1)" stroke-width="0" />
  <line x1="400" y1="150" x2="600" y2="300" stroke="rgba(0, 0, 0, 1)" stroke-width="0" />
  <line x1="600" y1="300" x2="200" y2="300" stroke="rgba(0, 0, 0, 1)" stroke-width="0" />
  <polygon points="360,450 360,600 440,600 440,450" fill="rgba(120, 70, 30, 1)" stroke="rgba(0, 0, 0, 1)" stroke-width="0" />
  <line x1="360" y1="450" x2="360" y2="600" stroke="rgba(0, 0, 0, 1)" stroke-width="0" />
  <line x1="360" y1="600" x2="440" y2="600" stroke="rgba(0, 0, 0, 1)" stroke-width="0" />
  <line x1="440" y1="600" x2="440" y2="450" stroke="rgba(0, 0, 0, 1)" stroke-width="0" />
  <line x1="440" y1="450" x2="360" y2="450" stroke="rgba(0, 0, 0, 1)" stroke-width="0" />
  <polygon points="250,370 250,440 320,440 320,370" fill="rgba(100, 180, 255, 1)" stroke="rgba(0, 0, 0, 1)" stroke-width="0" />
  <line x1="250" y1="370" x2="250" y2="440" stroke="rgba(0, 0, 0, 1)" stroke-width="0" />
  <line x1="250" y1="440" x2="320" y2="440" stroke="rgba(0, 0, 0, 1)" stroke-width="0" />
  <line x1="320" y1="440" x2="320" y2="370" stroke="rgba(0, 0, 0, 1)" stroke-width="0" />
  <line x1="320" y1="370" x2="250" y2="370" stroke="rgba(0, 0, 0, 1)" stroke-width="0" />
  <polygon points="480,370 480,440 550,440 550,370" fill="rgba(100, 180, 255, 1)" stroke="rgba(0, 0, 0, 1)" stroke-width="0" />
  <line x1="480" y1="370" x2="480" y2="440" stroke="rgba(0, 0, 0, 1)" stroke-width="0" />
  <line x1="480" y1="440" x2="550" y2="440" stroke="rgba(0, 0, 0, 1)" stroke-width="0" />
  <line x1="550" y1="440" x2="550" y2="370" stroke="rgba(0, 0, 0, 1)" stroke-width="0" />
  <line x1="550" y1="370" x2="480" y2="370" stroke="rgba(0, 0, 0, 1)" stroke-width="0" />
</svg>
