<svg xmlns="http://www.w3.org/2000/svg" width="1000" height="1000">
  <ellipse cx="100" cy="100" rx="50" ry="50" fill="rgba(255, 230, 0, 1)" stroke="rgba(0, 0, 0, 1)" stroke-width="1" />
  <ellipse cx="100" cy="100" rx="50" ry="50" fill="none" stroke="rgba(255, 200, 0, 1)" stroke-width="1" />
  <polygon points="200,300 600,300 600,600 200,600" fill="rgba(240, 200, 160, 1)" stroke="rgba(255, 200, 0, 1)" stroke-width="1" />
  <line x1="200" y1="300" x2="600" y2="300" stroke="rgba(0, 0, 0, 1)" stroke-width="4" />
  <line x1="600" y1="300" x2="600" y2="600" stroke="rgba(0, 0, 0, 1)" stroke-width="4" />
  <line x1="600" y1="600" x2="200" y2="600" stroke="rgba(0, 0, 0, 1)" stroke-width="4" />
  <line x1="200" y1="600" x2="200" y2="300" stroke="rgba(0, 0, 0, 1)" stroke-width="4" />
  <polygon points="200,300 400,150 600,300" fill="rgba(180, 50, 50, 1)" stroke="rgba(0, 0, 0, 1)" stroke-width="4" />
  <line x1="200" y1="300" x2="400" y2="150" stroke="rgba(0, 0, 0, 1)" stroke-width="4" />
  <line x1="400" y1="150" x2="600" y2="300" stroke="rgba(0, 0, 0, 1)" stroke-width="4" />
  <line x1="600" y1="300" x2="200" y2="300" stroke="rgba(0, 0, 0, 1)" stroke-width="4" />
  <polygon points="360,450 440,450 440,600 360,600" fill="rgba(120, 70, 30, 1)" stroke="rgba(0, 0, 0, 1)" stroke-width="4" />
  <line x1="360" y1="450" x2="440" y2="450" stroke="rgba(0, 0, 0, 1)" stroke-width="3" />
  <line x1="440" y1="450" x2="440" y2="600" stroke="rgba(0, 0, 0, 1)" stroke-width="3" />
  <line x1="440" y1="600" x2="360" y2="600" stroke="rgba(0, 0, 0, 1)" stroke-width="3" />
  <line x1="360" y1="600" x2="360" y2="450" stroke="rgba(0, 0, 0, 1)" stroke-width="3" />
  <polygon points="250,370 320,370 320,440 250,440" fill="rgba(100, 180, 255, 1)" stroke="rgba(0, 0, 0, 1)" stroke-width="3" />
  <line x1="250" y1="370" x2="320" y2="370" stroke="rgba(0, 0, 0, 1)" stroke-width="2" />
  <line x1="320" y1="370" x2="320" y2="440" stroke="rgba(0, 0, 0, 1)" stroke-width="2" />
  <line x1="320" y1="440" x2="250" y2="440" stroke="rgba(0, 0, 0, 1)" stroke-width="2" />
  <line x1="250" y1="440" x2="250" y2="370" stroke="rgba(0, 0, 0, 1)" stroke-width="2" />
  <polygon points="480,370 550,370 550,440 480,440" fill="rgba(100, 180, 255, 1)" stroke="rgba(0, 0, 0, 1)" stroke-width="2" />
  <line x1="480" y1="370" x2="550" y2="370" stroke="rgba(0, 0, 0, 1)" stroke-width="2" />
  <line x1="550" y1="370" x2="550" y2="440" stroke="rgba(0, 0, 0, 1)" stroke-width="2" />
  <line x1="550" y1="440" x2="480" y2="440" stroke="rgba(0, 0, 0, 1)" stroke-width="2" />
  <line x1="480" y1="440" x2="480" y2="370" stroke="rgba(0, 0, 0, 1)" stroke-width="2" />
  <polygon points="380,373.33 880,373.33 880,606.67 380,606.67" fill="rgba(240, 200, 160, 1)" stroke="rgba(0, 0, 0, 1)" stroke-width="2" />
  <line x1="380" y1="373.33" x2="880" y2="373.33" stroke="rgba(0, 0, 0, 1)" stroke-width="4" />
  <line x1="880" y1="373.33" x2="880" y2="606.67" stroke="rgba(0, 0, 0, 1)" stroke-width="4" />
  <line x1="880" y1="606.67" x2="380" y2="606.67" stroke="rgba(0, 0, 0, 1)" stroke-width="4" />
  <line x1="380" y1="606.67" x2="380" y2="373.33" stroke="rgba(0, 0, 0, 1)" stroke-width="4" />
  <polygon points="380,373.33 630,256.67 880,373.33" fill="rgba(180, 50, 50, 1)" stroke="rgba(0, 0, 0, 1)" stroke-width="4" />
  <line x1="380" y1="373.33" x2="630" y2="256.67" stroke="rgba(0, 0, 0, 1)" stroke-width="4" />
  <line x1="630" y1="256.67" x2="880" y2="373.33" stroke="rgba(0, 0, 0, 1)" stroke-width="4" />
  <line x1="880" y1="373.33" x2="380" y2="373.33" stroke="rgba(0, 0, 0, 1)" stroke-width="4" />
  <polygon points="580,490 680,490 680,606.67 580,606.67" fill="rgba(120, 70, 30, 1)" stroke="rgba(0, 0, 0, 1)" stroke-width="4" />
  <line x1="580" y1="490" x2="680" y2="490" stroke="rgba(0, 0, 0, 1)" stroke-width="3" />
  <line x1="680" y1="490" x2="680" y2="606.67" stroke="rgba(0, 0, 0, 1)" stroke-width="3" />
  <line x1="680" y1="606.67" x2="580" y2="606.67" stroke="rgba(0, 0, 0, 1)" stroke-width="3" />
  <line x1="580" y1="606.67" x2="580" y2="490" stroke="rgba(0, 0, 0, 1)" stroke-width="3" />
  <polygon points="442.5,427.78 530,427.78 530,482.22 442.5,482.22" fill="rgba(100, 180, 255, 1)" stroke="rgba(0, 0, 0, 1)" stroke-width="3" />
  <line x1="442.5" y1="427.78" x2="530" y2="427.78" stroke="rgba(0, 0, 0, 1)" stroke-width="2" />
  <line x1="530" y1="427.78" x2="530" y2="482.22" stroke="rgba(0, 0, 0, 1)" stroke-width="2" />
  <line x1="530" y1="482.22" x2="442.5" y2="482.22" stroke="rgba(0, 0, 0, 1)" stroke-width="2" />
  <line x1="442.5" y1="482.22" x2="442.5" y2="427.78" stroke="rgba(0, 0, 0, 1)" stroke-width="2" />
  <polygon points="730,427.78 817.5,427.78 817.5,482.22 730,482.22" fill="rgba(100, 180, 255, 1)" stroke="rgba(0, 0, 0, 1)" stroke-width="2" />
  <line x1="730" y1="427.78" x2="817.5" y2="427.78" stroke="rgba(0, 0, 0, 1)" stroke-width="2" />
  <line x1="817.5" y1="427.78" x2="817.5" y2="482.22" stroke="rgba(0, 0, 0, 1)" stroke-width="2" />
  <line x1="817.5" y1="482.22" x2="730" y2="482.22" stroke="rgba(0, 0, 0, 1)" stroke-width="2" />
  <line x1="730" y1="482.22" x2="730" y2="427.78" stroke="rgba(0, 0, 0, 1)" stroke-width="2" />
</svg>
