<svg xmlns="http://www.w3.org/2000/svg" width="1000" height="1000">
  <ellipse cx="100" cy="100" rx="50" ry="50" fill="none" stroke="rgba(255, 200, 0, 1)" stroke-width="1" />
  <line x1="200" y1="300" x2="600" y2="300" stroke="rgba(0, 0, 0, 1)" stroke-width="4" />
  <line x1="600" y1="300" x2="600" y2="600" stroke="rgba(0, 0, 0, 1)" stroke-width="4" />
  <line x1="600" y1="600" x2="200" y2="600" stroke="rgba(0, 0, 0, 1)" stroke-width="4" />
  <line x1="200" y1="600" x2="200" y2="300" stroke="rgba(0, 0, 0, 1)" stroke-width="4" />
  <line x1="200" y1="300" x2="400" y2="150" stroke="rgba(0, 0, 0, 1)" stroke-width="4" />
  <line x1="400" y1="150" x2="600" y2="300" stroke="rgba(0, 0, 0, 1)" stroke-width="4" />
  <line x1="600" y1="300" x2="200" y2="300" stroke="rgba(0, 0, 0, 1)" stroke-width="4" />
  <line x1="360" y1="450" x2="440" y2="450" stroke="rgba(0, 0, 0, 1)" stroke-width="3" />
  <line x1="440" y1="450" x2="440" y2="600" stroke="rgba(0, 0, 0, 1)" stroke-width="3" />
  <line x1="440" y1="600" x2="360" y2="600" stroke="rgba(0, 0, 0, 1)" stroke-width="3" />
  <line x1="360" y1="600" x2="360" y2="450" stroke="rgba(0, 0, 0, 1)" stroke-width="3" />
  <line x1="250" y1="370" x2="320" y2="370" stroke="rgba(0, 0, 0, 1)" stroke-width="2" />
  <line x1="320" y1="370" x2="320" y2="440" stroke="rgba(0, 0, 0, 1)" stroke-width="2" />
  <line x1="320" y1="440" x2="250" y2="440" stroke="rgba(0, 0, 0, 1)" stroke-width="2" />
  <line x1="250" y1="440" x2="250" y2="370" stroke="rgba(0, 0, 0, 1)" stroke-width="2" />
  <line x1="480" y1="370" x2="550" y2="370" stroke="rgba(0, 0, 0, 1)" stroke-width="2" />
  <line x1="550" y1="370" x2="550" y2="440" stroke="rgba(0, 0, 0, 1)" stroke-width="2" />
  <line x1="550" y1="440" x2="480" y2="440" stroke="rgba(0, 0, 0, 1)" stroke-width="2" />
  <line x1="480" y1="440" x2="480" y2="370" stroke="rgba(0, 0, 0, 1)" stroke-width="2" />
  <line x1="380" y1="373.33" x2="880" y2="373.33" stroke="rgba(0, 0, 0, 1)" stroke-width="4" />
  <line x1="880" y1="373.33" x2="880" y2="606.67" stroke="rgba(0, 0, 0, 1)" stroke-width="4" />
  <line x1="880" y1="606.67" x2="380" y2="606.67" stroke="rgba(0, 0, 0, 1)" stroke-width="4" />
  <line x1="380" y1="606.67" x2="380" y2="373.33" stroke="rgba(0, 0, 0, 1)" stroke-width="4" />
  <line x1="380" y1="373.33" x2="630" y2="256.67" stroke="rgba(0, 0, 0, 1)" stroke-width="4" />
  <line x1="630" y1="256.67" x2="880" y2="373.33" stroke="rgba(0, 0, 0, 1)" stroke-width="4" />
  <line x1="880" y1="373.33" x2="380" y2="373.33" stroke="rgba(0, 0, 0, 1)" stroke-width="4" />
  <line x1="580" y1="490" x2="680" y2="490" stroke="rgba(0, 0, 0, 1)" stroke-width="3" />
  <line x1="680" y1="490" x2="680" y2="606.67" stroke="rgba(0, 0, 0, 1)" stroke-width="3" />
  <line x1="680" y1="606.67" x2="580" y2="606.67" stroke="rgba(0, 0, 0, 1)" stroke-width="3" />
  <line x1="580" y1="606.67" x2="580" y2="490" stroke="rgba(0, 0, 0, 1)" stroke-width="3" />
  <line x1="442.5" y1="427.78" x2="530" y2="427.78" stroke="rgba(0, 0, 0, 1)" stroke-width="2" />
  <line x1="530" y1="427.78" x2="530" y2="482.22" stroke="rgba(0, 0, 0, 1)" stroke-width="2" />
  <line x1="530" y1="482.22" x2="442.5" y2="482.22" stroke="rgba(0, 0, 0, 1)" stroke-width="2" />
  <line x1="442.5" y1="482.22" x2="442.5" y2="427.78" stroke="rgba(0, 0, 0, 1)" stroke-width="2" />
  <line x1="730" y1="427.78" x2="817.5" y2="427.78" stroke="rgba(0, 0, 0, 1)" stroke-width="2" />
  <line x1="817.5" y1="427.78" x2="817.5" y2="482.22" stroke="rgba(0, 0, 0, 1)" stroke-width="2" />
  <line x1="817.5" y1="482.22" x2="730" y2="482.22" stroke="rgba(0, 0, 0, 1)" stroke-width="2" />
  <line x1="730" y1="482.22" x2="730" y2="427.78" stroke="rgba(0, 0, 0, 1)" stroke-width="2" />
</svg>
